# xmcd
#
# Track frame offsets:
#	150
#	15529
#	29313
#	43866
#	57428
#	70870
#	83961
#	99175
#	112871
#	127245
#	140433
#	153703
#
# Disc length: 2224 seconds
#
# Revision: 1
# Processed by: cddbd v1.5.2PL0 Copyright (c) Steve Scherf et al.
# Submitted via: audiograbber 1.83.01
#
DISCID=a008ae0c
DTITLE=Forester Sisters - CB 20222
DYEAR=1900
DGENRE=
TTITLE0=Men
TTITLE1=Leave It Alone
TTITLE2=You Again
TTITLE3=Noting's Gonna Bother Me
TTITLE4=What'll You Do About 
TTITLE5=Too Much Fun
TTITLE6=Men (A)
TTITLE7=Leave It Alone (D)
TTITLE8=You Again (F#)
TTITLE9=Nothing's Gonna Bother Me (A)
TTITLE10=What'll You Do About Me (A)
TTITLE11=Too Much Fun (A)
EXTD=
EXTT0=
EXTT1=
EXTT2=
EXTT3=
EXTT4=
EXTT5=
EXTT6=
EXTT7=
EXTT8=
EXTT9=
EXTT10=
EXTT11=
PLAYORDER=
